<svg width="722" height="722" viewBox="0 0 722 722" fill="none" xmlns="http://www.w3.org/2000/svg">
<g filter="url(#filter0_d_112_5673)">
<path d="M255.5 374.5C258.833 377.167 267.338 383.5 274.689 387.5C273.274 355.215 264.45 269.418 264.45 269.418C264.45 269.418 263 268.5 255.5 263C255.249 262.816 255.153 262.708 255 262.5L255.5 374.5Z" fill="#FF0000" fill-opacity="0.4" shape-rendering="crispEdges"/>
<path d="M255.5 374.5C258.833 377.167 267.338 383.5 274.689 387.5C273.274 355.215 264.45 269.418 264.45 269.418C264.45 269.418 263 268.5 255.5 263C255.249 262.816 255.153 262.708 255 262.5L255.5 374.5Z" stroke="#FF0000" stroke-width="2" shape-rendering="crispEdges"/>
</g>
<defs>
<filter id="filter0_d_112_5673" x="231.986" y="237.439" width="65.7793" height="173.786" filterUnits="userSpaceOnUse" color-interpolation-filters="sRGB">
<feFlood flood-opacity="0" result="BackgroundImageFix"/>
<feColorMatrix in="SourceAlpha" type="matrix" values="0 0 0 0 0 0 0 0 0 0 0 0 0 0 0 0 0 0 127 0" result="hardAlpha"/>
<feOffset/>
<feGaussianBlur stdDeviation="11"/>
<feComposite in2="hardAlpha" operator="out"/>
<feColorMatrix type="matrix" values="0 0 0 0 1 0 0 0 0 0 0 0 0 0 0 0 0 0 1 0"/>
<feBlend mode="normal" in2="BackgroundImageFix" result="effect1_dropShadow_112_5673"/>
<feBlend mode="normal" in="SourceGraphic" in2="effect1_dropShadow_112_5673" result="shape"/>
</filter>
</defs>
</svg>
