<svg width="722" height="722" viewBox="0 0 722 722" fill="none" xmlns="http://www.w3.org/2000/svg">
<g filter="url(#filter0_d_4_1037)">
<path d="M142.372 352.084L140.711 349.537C139.654 346.661 137.354 340.264 136.614 337.685C135.628 334.246 136.158 331.767 136.546 330.958L210.196 263.314C201.335 259.233 189.791 252.185 191.97 250.862C200.688 245.57 204.679 243.263 226.399 248.432L245.886 231.213L247.487 235.174L249.028 240.547L251.126 249.483L252.478 250.956L251.84 257.653C251.323 259.01 246.197 265.378 238.35 274.585C237.299 275.818 235.055 278.432 235.055 278.432C235.055 278.432 177.835 342.968 155.014 365.849C152.732 368.137 150.583 370.253 148.596 372.166C147.045 368.703 143.8 357.335 142.372 352.084Z" fill="#FF0000" fill-opacity="0.4" shape-rendering="crispEdges"/>
<path d="M152.779 315.37C156.77 313.063 160.691 312.404 162.79 312.965L157.266 318.038C154.471 317.211 151.525 319.917 149.683 321.608C147.842 323.299 146.001 324.99 146.955 327.508L139.222 334.611C137.879 332.902 139.781 328.439 141.364 325.855C143.265 322.751 148.789 317.678 152.779 315.37Z" fill="#FF0000" fill-opacity="0.4" shape-rendering="crispEdges"/>
<path d="M251.126 249.483C214.218 282.476 171.704 319.713 140.711 349.537M251.126 249.483L252.478 250.956M251.126 249.483L249.028 240.547L247.487 235.174M140.711 349.537L142.372 352.084M140.711 349.537C139.654 346.661 137.354 340.264 136.614 337.685M142.372 352.084C143.8 357.335 147.045 368.703 148.596 372.166C150.583 370.253 152.732 368.137 155.014 365.849M142.372 352.084L151.608 342.922M155.014 365.849C152.987 357.729 151.899 347.181 151.608 342.922M155.014 365.849C177.835 342.968 235.055 278.432 235.055 278.432M151.608 342.922L233.748 266.802M233.748 266.802L233.758 266.793L233.774 266.653M233.748 266.802C233.715 267.016 233.7 267.249 233.728 267.499C234.75 276.743 235.055 278.432 235.055 278.432M233.748 266.802C233.755 266.751 233.764 266.702 233.774 266.653M252.478 250.956L251.84 257.653C251.323 259.01 246.197 265.378 238.35 274.585M252.478 250.956L235.967 264.763L235.699 265.01M136.614 337.685C135.628 334.246 136.158 331.767 136.546 330.958L210.196 263.314M136.614 337.685L214.199 265.072M235.699 265.01C236.615 265.06 237.526 265.814 237.628 267.311C237.796 269.76 238.165 273.062 238.35 274.585M235.699 265.01C234.849 264.964 233.995 265.522 233.774 266.653M238.35 274.585C237.299 275.818 235.055 278.432 235.055 278.432M247.487 235.174L245.886 231.213L226.399 248.432M247.487 235.174L230.931 250.041M226.399 248.432L230.931 250.041M226.399 248.432C204.679 243.263 200.688 245.57 191.97 250.862M230.931 250.041C231.858 250.434 233.853 251.226 234.418 251.25M210.196 263.314L214.199 265.072M210.196 263.314C201.335 259.233 189.791 252.185 191.97 250.862M214.199 265.072L214.375 264.907M214.199 265.072C216.91 266.428 222.617 269.15 223.747 269.198C223.991 269.209 224.455 268.455 224.852 268.184M231.48 262.096C233.322 260.404 235.441 260.495 236.944 258.435C238.447 256.376 245.752 251.024 243.384 248.447C241.017 245.869 235.125 251.28 234.418 251.25M231.48 262.096C233.966 259.813 236.298 256.992 236.358 255.579C236.406 254.449 235.085 252.222 234.418 251.25M231.48 262.096C229.957 263.495 226.756 266.883 224.852 268.184M191.97 250.862C199.715 255.154 217.161 263.998 224.852 268.184M162.79 312.965C160.691 312.404 156.77 313.063 152.779 315.37C148.789 317.678 143.265 322.751 141.364 325.855C139.781 328.439 137.879 332.902 139.222 334.611L146.955 327.508C146.001 324.99 147.842 323.299 149.683 321.608C151.525 319.917 154.471 317.211 157.266 318.038L162.79 312.965Z" stroke="#FF0000" stroke-width="2" shape-rendering="crispEdges"/>
</g>
<defs>
<filter id="filter0_d_4_1037" x="105.051" y="199.528" width="178.465" height="204.345" filterUnits="userSpaceOnUse" color-interpolation-filters="sRGB">
<feFlood flood-opacity="0" result="BackgroundImageFix"/>
<feColorMatrix in="SourceAlpha" type="matrix" values="0 0 0 0 0 0 0 0 0 0 0 0 0 0 0 0 0 0 127 0" result="hardAlpha"/>
<feOffset/>
<feGaussianBlur stdDeviation="15"/>
<feComposite in2="hardAlpha" operator="out"/>
<feColorMatrix type="matrix" values="0 0 0 0 1 0 0 0 0 0 0 0 0 0 0 0 0 0 1 0"/>
<feBlend mode="normal" in2="BackgroundImageFix" result="effect1_dropShadow_4_1037"/>
<feBlend mode="normal" in="SourceGraphic" in2="effect1_dropShadow_4_1037" result="shape"/>
</filter>
</defs>
</svg>
