<svg width="722" height="722" viewBox="0 0 722 722" fill="none" xmlns="http://www.w3.org/2000/svg">
<g filter="url(#filter0_d_2_628)">
<path fill-rule="evenodd" clip-rule="evenodd" d="M248 133C249.5 126.5 253.4 112.2 257 107C261.5 100.5 280.5 75.5 295 65.5C295.999 65.1158 297.825 64.7198 300.266 64.3247C310.962 62.5938 333.482 60.8801 350.127 60.2515C354.406 60.0899 358.298 60 361.5 60C364.702 60 368.594 60.0899 372.873 60.2515C389.518 60.8801 412.038 62.5938 422.734 64.3247C425.176 64.7198 427.001 65.1158 428 65.5C442.5 75.5 461.5 100.5 466 107C469.6 112.2 473.5 126.5 475 133C479 152.5 480 182 479.5 191C479.244 195.616 478.593 199.179 476.879 202.5C475.252 205.654 472.666 208.59 468.55 212C468.683 207.909 467.776 202.896 464.5 198.314C463.023 196.247 461.063 194.268 458.5 192.5C444 182.5 433 175 384.5 173C377.667 172.833 363.5 172.5 361.5 172.5C359.5 172.5 345.333 172.833 338.5 173C290 175 279 182.5 264.5 192.5C261.937 194.268 259.978 196.247 258.5 198.314C255.224 202.896 254.317 207.909 254.45 212C250.334 208.59 247.748 205.654 246.121 202.5C244.407 199.179 243.756 195.616 243.5 191C243 182 244 152.5 248 133Z" fill="#FF0000" fill-opacity="0.4" shape-rendering="crispEdges"/>
<path d="M257 107L256.178 106.431L257 107ZM248 133L247.026 132.775L247.023 132.787L247.02 132.799L248 133ZM295 65.5L294.641 64.5667L294.53 64.6093L294.432 64.6768L295 65.5ZM300.266 64.3247L300.426 65.3118L300.266 64.3247ZM350.127 60.2515L350.089 59.2522L350.127 60.2515ZM372.873 60.2515L372.911 59.2522L372.873 60.2515ZM422.734 64.3247L422.894 63.3375V63.3375L422.734 64.3247ZM428 65.5L428.568 64.6768L428.47 64.6093L428.359 64.5667L428 65.5ZM466 107L465.178 107.569L466 107ZM475 133L475.98 132.799L475.977 132.787L475.974 132.775L475 133ZM479.5 191L480.498 191.055L479.5 191ZM476.879 202.5L477.768 202.958L476.879 202.5ZM468.55 212L467.55 211.967L467.478 214.186L469.187 212.77L468.55 212ZM464.5 198.314L463.686 198.895L464.5 198.314ZM458.5 192.5L457.932 193.323L458.5 192.5ZM384.5 173L384.541 172.001L384.533 172.001L384.524 172L384.5 173ZM338.5 173L338.476 172L338.467 172.001L338.459 172.001L338.5 173ZM264.5 192.5L265.068 193.323H265.068L264.5 192.5ZM258.5 198.314L257.687 197.732L258.5 198.314ZM254.45 212L253.813 212.77L255.522 214.186L255.45 211.967L254.45 212ZM246.121 202.5L247.009 202.042L246.121 202.5ZM243.5 191L242.502 191.055L243.5 191ZM256.178 106.431C254.282 109.169 252.369 114.181 250.76 119.208C249.138 124.276 247.781 129.503 247.026 132.775L248.974 133.225C249.719 129.997 251.062 124.824 252.665 119.817C254.281 114.769 256.118 110.031 257.822 107.569L256.178 106.431ZM294.432 64.6768C287.068 69.7553 278.623 78.5909 271.491 86.9117C264.345 95.249 258.448 103.151 256.178 106.431L257.822 107.569C260.052 104.349 265.906 96.501 273.009 88.2133C280.127 79.9091 288.432 71.2447 295.568 66.3232L294.432 64.6768ZM300.106 63.3375C297.671 63.7317 295.749 64.1405 294.641 64.5667L295.359 66.4333C296.249 66.0911 297.978 65.7079 300.426 65.3118L300.106 63.3375ZM350.089 59.2522C333.433 59.8812 310.864 61.5966 300.106 63.3375L300.426 65.3118C311.06 63.591 333.53 61.879 350.165 61.2508L350.089 59.2522ZM361.5 59C358.281 59 354.376 59.0903 350.089 59.2522L350.165 61.2508C354.437 61.0895 358.315 61 361.5 61V59ZM361.5 61C364.685 61 368.563 61.0895 372.835 61.2508L372.911 59.2522C368.624 59.0903 364.719 59 361.5 59V61ZM372.835 61.2508C389.47 61.879 411.94 63.591 422.574 65.3118L422.894 63.3375C412.136 61.5966 389.567 59.8812 372.911 59.2522L372.835 61.2508ZM422.574 65.3118C425.022 65.7079 426.751 66.0911 427.641 66.4333L428.359 64.5667C427.251 64.1405 425.329 63.7317 422.894 63.3375L422.574 65.3118ZM427.432 66.3232C434.568 71.2447 442.873 79.9091 449.991 88.2133C457.094 96.501 462.948 104.349 465.178 107.569L466.822 106.431C464.552 103.151 458.656 95.249 451.509 86.9117C444.377 78.5909 435.932 69.7553 428.568 64.6768L427.432 66.3232ZM465.178 107.569C466.882 110.031 468.719 114.769 470.335 119.817C471.938 124.824 473.281 129.997 474.026 133.225L475.974 132.775C475.219 129.503 473.862 124.276 472.24 119.208C470.631 114.181 468.718 109.169 466.822 106.431L465.178 107.569ZM474.02 133.201C478 152.603 478.998 182.016 478.502 190.945L480.498 191.055C481.002 181.984 480 152.397 475.98 132.799L474.02 133.201ZM478.502 190.945C478.249 195.499 477.611 198.901 475.991 202.042L477.768 202.958C479.574 199.457 480.239 195.732 480.498 191.055L478.502 190.945ZM475.991 202.042C474.449 205.03 471.974 207.865 467.912 211.23L469.187 212.77C473.358 209.315 476.055 206.279 477.768 202.958L475.991 202.042ZM469.549 212.033C469.688 207.774 468.744 202.532 465.314 197.732L463.686 198.895C466.808 203.261 467.678 208.045 467.55 211.967L469.549 212.033ZM465.314 197.732C463.767 195.569 461.724 193.509 459.068 191.677L457.932 193.323C460.402 195.027 462.278 196.925 463.686 198.895L465.314 197.732ZM459.068 191.677C451.807 186.67 445.329 182.22 434.553 178.797C423.805 175.383 408.828 173.002 384.541 172.001L384.459 173.999C408.672 174.998 423.445 177.367 433.947 180.703C444.421 184.03 450.693 188.33 457.932 193.323L459.068 191.677ZM384.524 172C377.702 171.834 363.516 171.5 361.5 171.5V173.5C363.484 173.5 377.631 173.833 384.476 174L384.524 172ZM338.524 174C345.369 173.833 359.516 173.5 361.5 173.5V171.5C359.484 171.5 345.298 171.834 338.476 172L338.524 174ZM265.068 193.323C272.307 188.33 278.579 184.03 289.053 180.703C299.555 177.367 314.328 174.998 338.541 173.999L338.459 172.001C314.172 173.002 299.195 175.383 288.447 178.797C277.671 182.22 271.193 186.67 263.932 191.677L265.068 193.323ZM259.314 198.895C260.722 196.925 262.598 195.027 265.068 193.323L263.932 191.677C261.276 193.509 259.233 195.569 257.687 197.732L259.314 198.895ZM255.45 211.967C255.322 208.045 256.192 203.261 259.314 198.895L257.687 197.732C254.256 202.532 253.312 207.774 253.451 212.033L255.45 211.967ZM245.232 202.958C246.945 206.279 249.642 209.315 253.813 212.77L255.088 211.23C251.026 207.865 248.551 205.03 247.009 202.042L245.232 202.958ZM242.502 191.055C242.761 195.732 243.426 199.457 245.232 202.958L247.009 202.042C245.389 198.901 244.752 195.499 244.498 190.945L242.502 191.055ZM247.02 132.799C243 152.397 241.998 181.984 242.502 191.055L244.498 190.945C244.002 182.016 245 152.603 248.98 133.201L247.02 132.799Z" fill="#FF0000"/>
</g>
<defs>
<filter id="filter0_d_2_628" x="220.381" y="37" width="282.237" height="199.186" filterUnits="userSpaceOnUse" color-interpolation-filters="sRGB">
<feFlood flood-opacity="0" result="BackgroundImageFix"/>
<feColorMatrix in="SourceAlpha" type="matrix" values="0 0 0 0 0 0 0 0 0 0 0 0 0 0 0 0 0 0 127 0" result="hardAlpha"/>
<feOffset/>
<feGaussianBlur stdDeviation="11"/>
<feComposite in2="hardAlpha" operator="out"/>
<feColorMatrix type="matrix" values="0 0 0 0 1 0 0 0 0 0 0 0 0 0 0 0 0 0 1 0"/>
<feBlend mode="normal" in2="BackgroundImageFix" result="effect1_dropShadow_2_628"/>
<feBlend mode="normal" in="SourceGraphic" in2="effect1_dropShadow_2_628" result="shape"/>
</filter>
</defs>
</svg>
