<svg width="722" height="722" viewBox="0 0 722 722" fill="none" xmlns="http://www.w3.org/2000/svg">
<g filter="url(#filter0_d_4_3082)">
<path d="M361.5 51C318 51 292.5 54.5 288.5 56C284.5 57.5 251 82.5 249.5 85.5C248 88.5 247 90.5 246.5 93L246.464 93.0406C242.97 97.0342 238.498 102.144 238 144.5C237.6 178.5 237.167 215.667 237 230V255.5C229.667 259 215 269.4 215 283C217 284.6 229.833 280 236 277.5C236.167 301.167 236.5 354.2 236.5 377C236.5 389.942 236.912 405.874 237.41 425.078C238.007 448.162 238.727 475.974 239 509C239.4 557.4 240.167 576.167 240.5 579.5L241 582C242 590.833 245.2 612 250 626C253.5 639 256.5 649 257.5 649.5C257.893 649.697 258.054 650.125 258.257 650.663C258.57 651.495 258.983 652.59 260.5 653.5L260.55 653.53C263.311 655.189 287.967 670 361.5 670C435.033 670 459.689 655.189 462.45 653.53L462.5 653.5C464.017 652.59 464.43 651.495 464.743 650.663C464.946 650.125 465.107 649.697 465.5 649.5C466.5 649 469.5 639 473 626C477.8 612 481 590.833 482 582L482.5 579.5C482.833 576.167 483.6 557.4 484 509C484.273 475.974 484.993 448.162 485.59 425.078C486.088 405.874 486.5 389.942 486.5 377C486.5 354.2 486.833 301.167 487 277.5C493.167 280 506 284.6 508 283C508 269.4 493.333 259 486 255.5V230C485.833 215.667 485.4 178.5 485 144.5C484.502 102.144 480.03 97.0342 476.536 93.0406L476.5 93C476 90.5 475 88.5 473.5 85.5C472 82.5 438.5 57.5 434.5 56C430.5 54.5 405 51 361.5 51Z" fill="#FF0000" fill-opacity="0.4" shape-rendering="crispEdges"/>
<path d="M361.5 51C318 51 292.5 54.5 288.5 56C284.5 57.5 251 82.5 249.5 85.5C248 88.5 247 90.5 246.5 93L246.464 93.0406C242.97 97.0342 238.498 102.144 238 144.5C237.6 178.5 237.167 215.667 237 230V255.5C229.667 259 215 269.4 215 283C217 284.6 229.833 280 236 277.5C236.167 301.167 236.5 354.2 236.5 377C236.5 389.942 236.912 405.874 237.41 425.078C238.007 448.162 238.727 475.974 239 509C239.4 557.4 240.167 576.167 240.5 579.5L241 582C242 590.833 245.2 612 250 626C253.5 639 256.5 649 257.5 649.5C257.893 649.697 258.054 650.125 258.257 650.663C258.57 651.495 258.983 652.59 260.5 653.5L260.55 653.53C263.311 655.189 287.967 670 361.5 670C435.033 670 459.689 655.189 462.45 653.53L462.5 653.5C464.017 652.59 464.43 651.495 464.743 650.663C464.946 650.125 465.107 649.697 465.5 649.5C466.5 649 469.5 639 473 626C477.8 612 481 590.833 482 582L482.5 579.5C482.833 576.167 483.6 557.4 484 509C484.273 475.974 484.993 448.162 485.59 425.078C486.088 405.874 486.5 389.942 486.5 377C486.5 354.2 486.833 301.167 487 277.5C493.167 280 506 284.6 508 283C508 269.4 493.333 259 486 255.5V230C485.833 215.667 485.4 178.5 485 144.5C484.502 102.144 480.03 97.0342 476.536 93.0406L476.5 93C476 90.5 475 88.5 473.5 85.5C472 82.5 438.5 57.5 434.5 56C430.5 54.5 405 51 361.5 51Z" stroke="#FF0000" stroke-width="2" shape-rendering="crispEdges"/>
</g>
<defs>
<filter id="filter0_d_4_3082" x="184" y="20" width="355" height="681" filterUnits="userSpaceOnUse" color-interpolation-filters="sRGB">
<feFlood flood-opacity="0" result="BackgroundImageFix"/>
<feColorMatrix in="SourceAlpha" type="matrix" values="0 0 0 0 0 0 0 0 0 0 0 0 0 0 0 0 0 0 127 0" result="hardAlpha"/>
<feOffset/>
<feGaussianBlur stdDeviation="15"/>
<feComposite in2="hardAlpha" operator="out"/>
<feColorMatrix type="matrix" values="0 0 0 0 1 0 0 0 0 0 0 0 0 0 0 0 0 0 1 0"/>
<feBlend mode="normal" in2="BackgroundImageFix" result="effect1_dropShadow_4_3082"/>
<feBlend mode="normal" in="SourceGraphic" in2="effect1_dropShadow_4_3082" result="shape"/>
</filter>
</defs>
</svg>
