<svg width="722" height="722" viewBox="0 0 722 722" fill="none" xmlns="http://www.w3.org/2000/svg">
<g filter="url(#filter0_d_4_1446)">
<path d="M581.219 352.084L582.88 349.537C583.937 346.661 586.237 340.264 586.977 337.685C587.963 334.246 587.433 331.767 587.045 330.958L513.395 263.314C522.256 259.233 533.8 252.185 531.621 250.862C522.903 245.57 518.912 243.263 497.192 248.432L477.705 231.213L476.104 235.174L474.563 240.547L472.466 249.483L471.113 250.956L471.751 257.653C472.269 259.01 477.394 265.378 485.241 274.585C486.292 275.818 488.537 278.432 488.537 278.432C488.537 278.432 545.756 342.968 568.577 365.849C570.859 368.137 573.008 370.253 574.995 372.166C576.546 368.703 579.791 357.335 581.219 352.084Z" fill="#FF0000" fill-opacity="0.4" shape-rendering="crispEdges"/>
<path d="M570.812 315.37C566.821 313.063 562.9 312.404 560.801 312.965L566.325 318.038C569.121 317.211 572.067 319.917 573.908 321.608C575.749 323.299 577.59 324.99 576.636 327.508L584.369 334.611C585.712 332.902 583.81 328.439 582.227 325.855C580.326 322.751 574.802 317.678 570.812 315.37Z" fill="#FF0000" fill-opacity="0.4" shape-rendering="crispEdges"/>
<path d="M472.466 249.483C509.373 282.476 551.887 319.713 582.88 349.537M472.466 249.483L471.113 250.956M472.466 249.483L474.563 240.547L476.104 235.174M582.88 349.537L581.219 352.084M582.88 349.537C583.937 346.661 586.237 340.264 586.977 337.685M581.219 352.084C579.791 357.335 576.546 368.703 574.995 372.166C573.008 370.253 570.859 368.137 568.577 365.849M581.219 352.084L571.983 342.922M568.577 365.849C570.604 357.729 571.692 347.181 571.983 342.922M568.577 365.849C545.756 342.968 488.537 278.432 488.537 278.432M571.983 342.922L489.843 266.802M489.843 266.802L489.833 266.793L489.817 266.653M489.843 266.802C489.876 267.016 489.891 267.249 489.863 267.499C488.841 276.743 488.537 278.432 488.537 278.432M489.843 266.802C489.836 266.751 489.827 266.702 489.817 266.653M471.113 250.956L471.751 257.653C472.269 259.01 477.394 265.378 485.241 274.585M471.113 250.956L487.624 264.763L487.892 265.01M586.977 337.685C587.963 334.246 587.433 331.767 587.045 330.958L513.395 263.314M586.977 337.685L509.392 265.072M487.892 265.01C486.976 265.06 486.065 265.814 485.963 267.311C485.796 269.76 485.426 273.062 485.241 274.585M487.892 265.01C488.742 264.964 489.596 265.522 489.817 266.653M485.241 274.585C486.292 275.818 488.537 278.432 488.537 278.432M476.104 235.174L477.705 231.213L497.192 248.432M476.104 235.174L492.66 250.041M497.192 248.432L492.66 250.041M497.192 248.432C518.912 243.263 522.903 245.57 531.621 250.862M492.66 250.041C491.733 250.434 489.738 251.226 489.173 251.25M513.395 263.314L509.392 265.072M513.395 263.314C522.256 259.233 533.8 252.185 531.621 250.862M509.392 265.072L509.216 264.907M509.392 265.072C506.681 266.428 500.974 269.15 499.844 269.198C499.6 269.209 499.136 268.455 498.739 268.184M492.111 262.096C490.269 260.404 488.15 260.495 486.647 258.435C485.144 256.376 477.839 251.024 480.207 248.447C482.574 245.869 488.466 251.28 489.173 251.25M492.111 262.096C489.625 259.813 487.293 256.992 487.233 255.579C487.185 254.449 488.506 252.222 489.173 251.25M492.111 262.096C493.634 263.495 496.835 266.883 498.739 268.184M531.621 250.862C523.877 255.154 506.43 263.998 498.739 268.184M560.801 312.965C562.9 312.404 566.821 313.063 570.812 315.37C574.802 317.678 580.326 322.751 582.227 325.855C583.81 328.439 585.712 332.902 584.369 334.611L576.636 327.508C577.59 324.99 575.749 323.299 573.908 321.608C572.067 319.917 569.121 317.211 566.325 318.038L560.801 312.965Z" stroke="#FF0000" stroke-width="2" shape-rendering="crispEdges"/>
</g>
<defs>
<filter id="filter0_d_4_1446" x="440.075" y="199.528" width="178.465" height="204.345" filterUnits="userSpaceOnUse" color-interpolation-filters="sRGB">
<feFlood flood-opacity="0" result="BackgroundImageFix"/>
<feColorMatrix in="SourceAlpha" type="matrix" values="0 0 0 0 0 0 0 0 0 0 0 0 0 0 0 0 0 0 127 0" result="hardAlpha"/>
<feOffset/>
<feGaussianBlur stdDeviation="15"/>
<feComposite in2="hardAlpha" operator="out"/>
<feColorMatrix type="matrix" values="0 0 0 0 1 0 0 0 0 0 0 0 0 0 0 0 0 0 1 0"/>
<feBlend mode="normal" in2="BackgroundImageFix" result="effect1_dropShadow_4_1446"/>
<feBlend mode="normal" in="SourceGraphic" in2="effect1_dropShadow_4_1446" result="shape"/>
</filter>
</defs>
</svg>
