<svg width="722" height="722" viewBox="0 0 722 722" fill="none" xmlns="http://www.w3.org/2000/svg">
<g filter="url(#filter0_d_112_6714)">
<path d="M468.189 374.5C464.856 377.167 456.351 383.5 449 387.5C450.415 355.215 459.24 269.418 459.24 269.418C459.24 269.418 460.689 268.5 468.189 263C468.44 262.816 468.536 262.708 468.689 262.5L468.189 374.5Z" fill="#FF0000" fill-opacity="0.4" shape-rendering="crispEdges"/>
<path d="M468.189 374.5C464.856 377.167 456.351 383.5 449 387.5C450.415 355.215 459.24 269.418 459.24 269.418C459.24 269.418 460.689 268.5 468.189 263C468.44 262.816 468.536 262.708 468.689 262.5L468.189 374.5Z" stroke="#FF0000" stroke-width="2" shape-rendering="crispEdges"/>
</g>
<defs>
<filter id="filter0_d_112_6714" x="425.924" y="237.439" width="65.7793" height="173.786" filterUnits="userSpaceOnUse" color-interpolation-filters="sRGB">
<feFlood flood-opacity="0" result="BackgroundImageFix"/>
<feColorMatrix in="SourceAlpha" type="matrix" values="0 0 0 0 0 0 0 0 0 0 0 0 0 0 0 0 0 0 127 0" result="hardAlpha"/>
<feOffset/>
<feGaussianBlur stdDeviation="11"/>
<feComposite in2="hardAlpha" operator="out"/>
<feColorMatrix type="matrix" values="0 0 0 0 1 0 0 0 0 0 0 0 0 0 0 0 0 0 1 0"/>
<feBlend mode="normal" in2="BackgroundImageFix" result="effect1_dropShadow_112_6714"/>
<feBlend mode="normal" in="SourceGraphic" in2="effect1_dropShadow_112_6714" result="shape"/>
</filter>
</defs>
</svg>
