<svg width="722" height="722" viewBox="0 0 722 722" fill="none" xmlns="http://www.w3.org/2000/svg">
<g filter="url(#filter0_d_4_1855)">
<path d="M177.962 501.753L159.643 505.617L159.085 504.036L158.898 503.509C158.531 503.154 158.178 502.801 157.838 502.447C157.306 501.875 156.491 501.31 156.02 500.731C152.06 495.864 150.291 490.814 149.7 486.398C149.43 484.378 149.406 482.49 149.531 480.813C149.7 478.549 150.141 476.67 150.616 475.368L163.378 461.627L164.452 460.472C165.319 458.38 166.971 456.256 169.672 453.457C171.379 451.689 173.119 450.315 174.807 449.269L176.141 447.887L195.37 427.184L239.054 380C239.554 384.5 239.895 385.958 240.25 386.07L245.054 397.653L246.866 400.096C248.069 404.267 251.258 414.061 254.393 419.865L248.838 425.622L196.703 481.622L194.659 483.818L185.625 493.523L181.793 497.638L177.962 501.753Z" fill="#FF0000" fill-opacity="0.4" shape-rendering="crispEdges"/>
<path d="M248.838 425.622L196.703 481.622M248.838 425.622L239.578 411.25M248.838 425.622L254.393 419.865C251.258 414.061 248.069 404.267 246.866 400.096M246.866 400.096L245.054 397.653M246.866 400.096C244.135 402.927 241.316 405.909 238.456 408.981M157.838 502.447C158.178 502.801 158.531 503.154 158.898 503.509L159.085 504.036M157.838 502.447C162.246 496.996 172.492 484.77 184.823 470.159M157.838 502.447C157.306 501.875 156.491 501.31 156.02 500.731M185.625 493.523L166.896 495.94M185.625 493.523L194.659 483.818M185.625 493.523L181.793 497.638M166.896 495.94L186.587 472.651M166.896 495.94L162.99 499.988M159.085 504.036L159.643 505.617L177.962 501.753L181.793 497.638M159.085 504.036L162.99 499.988M194.659 483.818L196.703 481.622M194.659 483.818L186.587 472.651M184.823 470.159C185.313 469.579 185.943 468.833 186.439 468.245M184.823 470.159L186.587 472.651M196.703 481.622L187.632 470.128M186.439 468.245L187.632 470.128M186.439 468.245C189.988 464.049 215.513 433.632 238.456 408.981M187.632 470.128L239.578 411.25M239.578 411.25L238.456 408.981M181.793 497.638L162.99 499.988M156.02 500.731C206.581 441.128 211.069 435.036 245.054 397.653M156.02 500.731C152.06 495.864 150.291 490.814 149.7 486.398M245.054 397.653L240.25 386.07M149.531 480.813C149.7 478.549 150.141 476.67 150.616 475.368L163.378 461.627L164.452 460.472M149.531 480.813L163.713 465.394M149.531 480.813C149.406 482.49 149.43 484.378 149.7 486.398M240.25 386.07C239.895 385.958 239.554 384.5 239.054 380L195.37 427.184L176.141 447.887L174.807 449.269M240.25 386.07L185.615 446.606M149.7 486.398L164.498 470.003M185.615 446.606L181.257 451.434M185.615 446.606C183.437 446.02 179.303 446.484 174.807 449.269M164.498 470.003L170.196 463.689M164.498 470.003C163.527 465.91 163.312 463.219 164.452 460.472M170.196 463.689C169.067 459.126 170.79 456.62 172.873 454.461C174.956 452.302 178.367 450.73 181.257 451.434M170.196 463.689L181.257 451.434M174.807 449.269C173.119 450.315 171.379 451.689 169.672 453.457C166.971 456.256 165.319 458.38 164.452 460.472" stroke="#FF0000" stroke-width="2" shape-rendering="crispEdges"/>
</g>
<defs>
<filter id="filter0_d_4_1855" x="118.458" y="347.715" width="167.162" height="189.061" filterUnits="userSpaceOnUse" color-interpolation-filters="sRGB">
<feFlood flood-opacity="0" result="BackgroundImageFix"/>
<feColorMatrix in="SourceAlpha" type="matrix" values="0 0 0 0 0 0 0 0 0 0 0 0 0 0 0 0 0 0 127 0" result="hardAlpha"/>
<feOffset/>
<feGaussianBlur stdDeviation="15"/>
<feComposite in2="hardAlpha" operator="out"/>
<feColorMatrix type="matrix" values="0 0 0 0 1 0 0 0 0 0 0 0 0 0 0 0 0 0 1 0"/>
<feBlend mode="normal" in2="BackgroundImageFix" result="effect1_dropShadow_4_1855"/>
<feBlend mode="normal" in="SourceGraphic" in2="effect1_dropShadow_4_1855" result="shape"/>
</filter>
</defs>
</svg>
