<svg width="722" height="722" viewBox="0 0 722 722" fill="none" xmlns="http://www.w3.org/2000/svg">
<g filter="url(#filter0_d_4_2264)">
<path d="M547.292 501.753L565.611 505.617L566.169 504.036L566.356 503.509C566.723 503.154 567.076 502.801 567.416 502.447C567.948 501.875 568.763 501.31 569.234 500.731C573.194 495.864 574.962 490.814 575.554 486.398C575.824 484.378 575.848 482.49 575.723 480.813C575.554 478.549 575.113 476.67 574.638 475.368L561.876 461.627L560.802 460.472C559.935 458.38 558.282 456.256 555.581 453.457C553.875 451.689 552.135 450.315 550.447 449.269L549.113 447.887L529.884 427.184L486.2 380C485.7 384.5 485.359 385.958 485.004 386.07L480.2 397.653L478.388 400.096C477.185 404.267 473.996 414.061 470.861 419.865L476.416 425.622L528.551 481.622L530.595 483.818L539.629 493.523L543.461 497.638L547.292 501.753Z" fill="#FF0000" fill-opacity="0.4" shape-rendering="crispEdges"/>
<path d="M476.416 425.622L528.551 481.622M476.416 425.622L485.676 411.25M476.416 425.622L470.861 419.865C473.996 414.061 477.185 404.267 478.388 400.096M478.388 400.096L480.2 397.653M478.388 400.096C481.119 402.927 483.938 405.909 486.798 408.981M567.416 502.447C567.076 502.801 566.723 503.154 566.356 503.509L566.169 504.036M567.416 502.447C563.008 496.996 552.762 484.77 540.431 470.159M567.416 502.447C567.948 501.875 568.763 501.31 569.234 500.731M539.629 493.523L558.358 495.94M539.629 493.523L530.595 483.818M539.629 493.523L543.461 497.638M558.358 495.94L538.666 472.651M558.358 495.94L562.264 499.988M566.169 504.036L565.611 505.617L547.292 501.753L543.461 497.638M566.169 504.036L562.264 499.988M530.595 483.818L528.551 481.622M530.595 483.818L538.666 472.651M540.431 470.159C539.941 469.579 539.311 468.833 538.814 468.245M540.431 470.159L538.666 472.651M528.551 481.622L537.622 470.128M538.814 468.245L537.622 470.128M538.814 468.245C535.266 464.049 509.741 433.632 486.798 408.981M537.622 470.128L485.676 411.25M485.676 411.25L486.798 408.981M543.461 497.638L562.264 499.988M569.234 500.731C518.673 441.128 514.185 435.036 480.2 397.653M569.234 500.731C573.194 495.864 574.962 490.814 575.554 486.398M480.2 397.653L485.004 386.07M575.723 480.813C575.554 478.549 575.113 476.67 574.638 475.368L561.876 461.627L560.802 460.472M575.723 480.813L561.541 465.394M575.723 480.813C575.848 482.49 575.824 484.378 575.554 486.398M485.004 386.07C485.359 385.958 485.7 384.5 486.2 380L529.884 427.184L549.113 447.887L550.447 449.269M485.004 386.07L539.639 446.606M575.554 486.398L560.756 470.003M539.639 446.606L543.997 451.434M539.639 446.606C541.817 446.02 545.951 446.484 550.447 449.269M560.756 470.003L555.058 463.689M560.756 470.003C561.727 465.91 561.942 463.219 560.802 460.472M555.058 463.689C556.187 459.126 554.464 456.62 552.381 454.461C550.298 452.302 546.886 450.73 543.997 451.434M555.058 463.689L543.997 451.434M550.447 449.269C552.135 450.315 553.875 451.689 555.581 453.457C558.282 456.256 559.935 458.38 560.802 460.472" stroke="#FF0000" stroke-width="2" shape-rendering="crispEdges"/>
</g>
<defs>
<filter id="filter0_d_4_2264" x="439.634" y="347.715" width="167.162" height="189.061" filterUnits="userSpaceOnUse" color-interpolation-filters="sRGB">
<feFlood flood-opacity="0" result="BackgroundImageFix"/>
<feColorMatrix in="SourceAlpha" type="matrix" values="0 0 0 0 0 0 0 0 0 0 0 0 0 0 0 0 0 0 127 0" result="hardAlpha"/>
<feOffset/>
<feGaussianBlur stdDeviation="15"/>
<feComposite in2="hardAlpha" operator="out"/>
<feColorMatrix type="matrix" values="0 0 0 0 1 0 0 0 0 0 0 0 0 0 0 0 0 0 1 0"/>
<feBlend mode="normal" in2="BackgroundImageFix" result="effect1_dropShadow_4_2264"/>
<feBlend mode="normal" in="SourceGraphic" in2="effect1_dropShadow_4_2264" result="shape"/>
</filter>
</defs>
</svg>
