<svg width="722" height="722" viewBox="0 0 722 722" fill="none" xmlns="http://www.w3.org/2000/svg">
<g filter="url(#filter0_d_112_5142)">
<path d="M446.912 638.5C446.695 630.906 446.131 619.844 445.019 609.5C444.461 604.309 443.764 599.3 442.904 595C441.779 599.793 440.918 604.012 440.279 607.5C439.37 612.454 438.907 615.935 438.762 617.5C438.203 618.078 437.615 618.658 437 619.232C441.4 626.646 443.833 635.872 444.5 639.557C445.294 639.212 446.098 638.86 446.912 638.5Z" fill="#FF0000" fill-opacity="0.4" shape-rendering="crispEdges"/>
<path d="M277.981 609.5C276.869 619.844 276.305 630.906 276.088 638.5L278.5 639.557C278.847 637.641 279.671 634.228 281 630.351C282.228 626.77 283.887 622.792 286 619.232C285.385 618.658 284.797 618.078 284.238 617.5C281.19 614.351 279.006 611.264 277.981 609.5Z" fill="#FF0000" fill-opacity="0.4" shape-rendering="crispEdges"/>
<path d="M293 624.5C290.409 623 288.053 621.148 286 619.232C283.887 622.792 282.228 626.77 281 630.351C279.671 634.228 278.847 637.641 278.5 639.557C306.404 651.691 322.607 655 361.5 655C400.393 655 416.596 651.691 444.5 639.557C443.833 635.872 441.4 626.646 437 619.232C434.947 621.148 432.591 623 430 624.5V637.5C416 646 384 649 369 649C366.5 646 363.5 646 361.5 646C359.5 646 356.5 646 354 649C339 649 307 646 293 637.5V624.5Z" fill="#FF0000" fill-opacity="0.4" shape-rendering="crispEdges"/>
<path d="M286 619.232C288.053 621.148 290.409 623 293 624.5C301 629.5 336 634 361.5 634C387 634 422 629.5 430 624.5C432.591 623 434.947 621.148 437 619.232C437.615 618.658 438.203 618.078 438.762 617.5C438.907 615.935 439.37 612.454 440.279 607.5C440.918 604.012 441.779 599.793 442.904 595C442.621 593.583 442.32 592.244 442 591C439.5 603.5 434.5 607.5 430.5 613C420 618 408.5 619.232 403 619C397.5 619.768 383 621 361.5 621C340 621 325.5 619.768 320 619C314.5 619.232 303 618 292.5 613C288.5 607.5 283.5 603.5 281 591C280.68 592.244 280.379 593.583 280.096 595C282.819 606.6 283.992 614.833 284.238 617.5C284.797 618.078 285.385 618.658 286 619.232Z" fill="#FF0000" fill-opacity="0.4" shape-rendering="crispEdges"/>
<path d="M280.096 595C279.236 599.3 278.539 604.309 277.981 609.5C279.006 611.264 281.19 614.351 284.238 617.5C283.992 614.833 282.819 606.6 280.096 595Z" fill="#FF0000" fill-opacity="0.4" shape-rendering="crispEdges"/>
<path d="M361.5 634C336 634 301 629.5 293 624.5V637.5C307 646 339 649 354 649C356.5 646 359.5 646 361.5 646C363.5 646 366.5 646 369 649C384 649 416 646 430 637.5V624.5C422 629.5 387 634 361.5 634Z" fill="#FF0000" fill-opacity="0.4" shape-rendering="crispEdges"/>
<path d="M278.5 639.557C277.706 639.212 276.902 638.86 276.088 638.5C276.038 640.268 276 642.035 276 643.803C276.833 644.369 279.5 645.978 283.5 647.89C296.957 653.537 322.41 658.218 361.5 659C400.59 658.218 426.043 653.537 439.5 647.89C443.5 645.978 446.167 644.369 447 643.803C447 642.035 446.962 640.268 446.912 638.5C446.098 638.86 445.294 639.212 444.5 639.557C416.596 651.691 400.393 655 361.5 655C322.607 655 306.404 651.691 278.5 639.557Z" fill="#FF0000" fill-opacity="0.4" shape-rendering="crispEdges"/>
<path d="M281 591C283.5 603.5 288.5 607.5 292.5 613C303 618 314.5 619.232 320 619C325.5 619.768 340 621 361.5 621C383 621 397.5 619.768 403 619C408.5 619.232 420 618 430.5 613C434.5 607.5 439.5 603.5 442 591C442 579 434.5 575 432 575H291C289 575 281 577.5 281 591Z" fill="#FF0000" fill-opacity="0.4" shape-rendering="crispEdges"/>
<path d="M293 624.5C290.409 623 288.053 621.148 286 619.232M293 624.5C301 629.5 336 634 361.5 634C387 634 422 629.5 430 624.5M293 624.5V637.5C307 646 339 649 354 649C356.5 646 359.5 646 361.5 646C363.5 646 366.5 646 369 649C384 649 416 646 430 637.5V624.5M281 591C280.68 592.244 280.379 593.583 280.096 595M281 591C283.5 603.5 288.5 607.5 292.5 613C303 618 314.5 619.232 320 619C325.5 619.768 340 621 361.5 621C383 621 397.5 619.768 403 619C408.5 619.232 420 618 430.5 613C434.5 607.5 439.5 603.5 442 591M281 591C281 577.5 289 575 291 575M277.981 609.5C276.869 619.844 276.305 630.906 276.088 638.5M277.981 609.5C278.539 604.309 279.236 599.3 280.096 595M277.981 609.5C279.006 611.264 281.19 614.351 284.238 617.5M286 619.232C285.385 618.658 284.797 618.078 284.238 617.5M286 619.232C283.887 622.792 282.228 626.77 281 630.351C279.671 634.228 278.847 637.641 278.5 639.557M276.088 638.5C276.902 638.86 277.706 639.212 278.5 639.557M276.088 638.5C276.038 640.268 276 642.035 276 643.803C276.833 644.369 279.5 645.978 283.5 647.89C296.957 653.537 322.41 658.218 361.5 659C400.59 658.218 426.043 653.537 439.5 647.89C443.5 645.978 446.167 644.369 447 643.803C447 642.035 446.962 640.268 446.912 638.5M276.088 638.5L278.5 639.557M278.5 639.557C306.404 651.691 322.607 655 361.5 655C400.393 655 416.596 651.691 444.5 639.557M280.096 595C282.819 606.6 283.992 614.833 284.238 617.5M430 624.5C432.591 623 434.947 621.148 437 619.232M437 619.232C441.4 626.646 443.833 635.872 444.5 639.557M437 619.232C437.615 618.658 438.203 618.078 438.762 617.5M445.019 609.5C446.131 619.844 446.695 630.906 446.912 638.5M445.019 609.5C444.461 604.309 443.764 599.3 442.904 595M445.019 609.5C443.994 611.264 441.81 614.351 438.762 617.5M446.912 638.5C446.098 638.86 445.294 639.212 444.5 639.557M442 591C442.32 592.244 442.621 593.583 442.904 595M442 591C442 579 434.5 575 432 575M442.904 595C441.779 599.793 440.918 604.012 440.279 607.5C439.37 612.454 438.907 615.935 438.762 617.5M291 575C293 575 429.5 575 432 575M291 575H432" stroke="#FF0000" stroke-width="2" shape-rendering="crispEdges"/>
</g>
<defs>
<filter id="filter0_d_112_5142" x="253" y="552" width="217" height="130" filterUnits="userSpaceOnUse" color-interpolation-filters="sRGB">
<feFlood flood-opacity="0" result="BackgroundImageFix"/>
<feColorMatrix in="SourceAlpha" type="matrix" values="0 0 0 0 0 0 0 0 0 0 0 0 0 0 0 0 0 0 127 0" result="hardAlpha"/>
<feOffset/>
<feGaussianBlur stdDeviation="11"/>
<feComposite in2="hardAlpha" operator="out"/>
<feColorMatrix type="matrix" values="0 0 0 0 1 0 0 0 0 0 0 0 0 0 0 0 0 0 1 0"/>
<feBlend mode="normal" in2="BackgroundImageFix" result="effect1_dropShadow_112_5142"/>
<feBlend mode="normal" in="SourceGraphic" in2="effect1_dropShadow_112_5142" result="shape"/>
</filter>
</defs>
</svg>
