<svg width="722" height="722" viewBox="0 0 722 722" fill="none" xmlns="http://www.w3.org/2000/svg">
<g filter="url(#filter0_d_113_812)">
<path d="M255.5 374.5C258.833 377.167 267.338 383.5 274.689 387.5C273.274 355.215 264.45 269.418 264.45 269.418C264.45 269.418 263 268.5 255.5 263C255.249 262.816 255.153 262.708 255 262.5L255.5 374.5Z" fill="#FF0000" fill-opacity="0.4" shape-rendering="crispEdges"/>
<path d="M255.5 374.5C258.833 377.167 267.338 383.5 274.689 387.5C273.274 355.215 264.45 269.418 264.45 269.418C264.45 269.418 263 268.5 255.5 263C255.249 262.816 255.153 262.708 255 262.5L255.5 374.5Z" stroke="#FF0000" stroke-width="2" shape-rendering="crispEdges"/>
</g>
<g filter="url(#filter1_d_113_812)">
<path d="M468.189 374.5C464.856 377.167 456.351 383.5 449 387.5C450.415 355.215 459.24 269.418 459.24 269.418C459.24 269.418 460.689 268.5 468.189 263C468.44 262.816 468.536 262.708 468.689 262.5L468.189 374.5Z" fill="#FF0000" fill-opacity="0.4" shape-rendering="crispEdges"/>
<path d="M468.189 374.5C464.856 377.167 456.351 383.5 449 387.5C450.415 355.215 459.24 269.418 459.24 269.418C459.24 269.418 460.689 268.5 468.189 263C468.44 262.816 468.536 262.708 468.689 262.5L468.189 374.5Z" stroke="#FF0000" stroke-width="2" shape-rendering="crispEdges"/>
</g>
<g filter="url(#filter2_d_113_812)">
<path d="M276.509 481L275.143 404.5L258.5 400.588L262 479.026L276.509 481Z" fill="#FF0000" fill-opacity="0.4" shape-rendering="crispEdges"/>
<path d="M276.509 481L275.143 404.5L258.5 400.588L262 479.026L276.509 481Z" stroke="#FF0000" stroke-width="2" shape-rendering="crispEdges"/>
</g>
<g filter="url(#filter3_d_113_812)">
<path d="M447 481L448.366 404.5L465.009 400.588L461.509 479.026L447 481Z" fill="#FF0000" fill-opacity="0.4" shape-rendering="crispEdges"/>
<path d="M447 481L448.366 404.5L465.009 400.588L461.509 479.026L447 481Z" stroke="#FF0000" stroke-width="2" shape-rendering="crispEdges"/>
</g>
<defs>
<filter id="filter0_d_113_812" x="231.986" y="237.439" width="65.7793" height="173.785" filterUnits="userSpaceOnUse" color-interpolation-filters="sRGB">
<feFlood flood-opacity="0" result="BackgroundImageFix"/>
<feColorMatrix in="SourceAlpha" type="matrix" values="0 0 0 0 0 0 0 0 0 0 0 0 0 0 0 0 0 0 127 0" result="hardAlpha"/>
<feOffset/>
<feGaussianBlur stdDeviation="11"/>
<feComposite in2="hardAlpha" operator="out"/>
<feColorMatrix type="matrix" values="0 0 0 0 1 0 0 0 0 0 0 0 0 0 0 0 0 0 1 0"/>
<feBlend mode="normal" in2="BackgroundImageFix" result="effect1_dropShadow_113_812"/>
<feBlend mode="normal" in="SourceGraphic" in2="effect1_dropShadow_113_812" result="shape"/>
</filter>
<filter id="filter1_d_113_812" x="425.924" y="237.439" width="65.7793" height="173.785" filterUnits="userSpaceOnUse" color-interpolation-filters="sRGB">
<feFlood flood-opacity="0" result="BackgroundImageFix"/>
<feColorMatrix in="SourceAlpha" type="matrix" values="0 0 0 0 0 0 0 0 0 0 0 0 0 0 0 0 0 0 127 0" result="hardAlpha"/>
<feOffset/>
<feGaussianBlur stdDeviation="11"/>
<feComposite in2="hardAlpha" operator="out"/>
<feColorMatrix type="matrix" values="0 0 0 0 1 0 0 0 0 0 0 0 0 0 0 0 0 0 1 0"/>
<feBlend mode="normal" in2="BackgroundImageFix" result="effect1_dropShadow_113_812"/>
<feBlend mode="normal" in="SourceGraphic" in2="effect1_dropShadow_113_812" result="shape"/>
</filter>
<filter id="filter2_d_113_812" x="235.442" y="377.312" width="64.0875" height="126.836" filterUnits="userSpaceOnUse" color-interpolation-filters="sRGB">
<feFlood flood-opacity="0" result="BackgroundImageFix"/>
<feColorMatrix in="SourceAlpha" type="matrix" values="0 0 0 0 0 0 0 0 0 0 0 0 0 0 0 0 0 0 127 0" result="hardAlpha"/>
<feOffset/>
<feGaussianBlur stdDeviation="11"/>
<feComposite in2="hardAlpha" operator="out"/>
<feColorMatrix type="matrix" values="0 0 0 0 1 0 0 0 0 0 0 0 0 0 0 0 0 0 1 0"/>
<feBlend mode="normal" in2="BackgroundImageFix" result="effect1_dropShadow_113_812"/>
<feBlend mode="normal" in="SourceGraphic" in2="effect1_dropShadow_113_812" result="shape"/>
</filter>
<filter id="filter3_d_113_812" x="423.979" y="377.312" width="64.0875" height="126.836" filterUnits="userSpaceOnUse" color-interpolation-filters="sRGB">
<feFlood flood-opacity="0" result="BackgroundImageFix"/>
<feColorMatrix in="SourceAlpha" type="matrix" values="0 0 0 0 0 0 0 0 0 0 0 0 0 0 0 0 0 0 127 0" result="hardAlpha"/>
<feOffset/>
<feGaussianBlur stdDeviation="11"/>
<feComposite in2="hardAlpha" operator="out"/>
<feColorMatrix type="matrix" values="0 0 0 0 1 0 0 0 0 0 0 0 0 0 0 0 0 0 1 0"/>
<feBlend mode="normal" in2="BackgroundImageFix" result="effect1_dropShadow_113_812"/>
<feBlend mode="normal" in="SourceGraphic" in2="effect1_dropShadow_113_812" result="shape"/>
</filter>
</defs>
</svg>
